<?xml version="1.0" standalone="no"?>
<!DOCTYPE svg PUBLIC "-//W3C//DTD SVG 20010904//EN"
 "http://www.w3.org/TR/2001/REC-SVG-20010904/DTD/svg10.dtd">
<svg version="1.0" xmlns="http://www.w3.org/2000/svg"
 width="900.000000pt" height="882.000000pt" viewBox="0 0 900.000000 882.000000"
 preserveAspectRatio="xMidYMid meet">
<metadata>
Created by potrace 1.10, written by Peter Selinger 2001-2011
</metadata>
<g transform="translate(0.000000,882.000000) scale(0.100000,-0.100000)"
fill="#000000" stroke="none">
<path d="M4225 8703 c-128 -18 -291 -58 -363 -89 -18 -8 -37 -14 -43 -14 -17
0 -221 -101 -289 -144 -245 -152 -465 -370 -611 -601 -63 -101 -64 -103 -102
-180 -69 -142 -113 -272 -140 -410 -34 -175 -40 -253 -46 -575 l-6 -335 -755
-2 c-415 -2 -760 -5 -766 -7 -7 -3 -17 -38 -23 -78 -6 -40 -17 -100 -23 -133
-6 -33 -14 -85 -18 -115 -4 -30 -12 -82 -18 -115 -6 -33 -19 -105 -27 -160 -9
-55 -23 -136 -30 -180 -8 -44 -16 -98 -19 -120 -3 -22 -9 -65 -15 -95 -6 -30
-18 -100 -26 -155 -9 -55 -23 -136 -30 -180 -8 -44 -16 -98 -19 -120 -3 -22
-9 -65 -15 -95 -6 -30 -18 -100 -26 -155 -9 -55 -23 -136 -30 -180 -8 -44 -16
-98 -19 -120 -3 -22 -9 -65 -15 -95 -6 -30 -18 -100 -26 -155 -9 -55 -22 -136
-30 -180 -7 -44 -20 -123 -29 -175 -40 -252 -48 -301 -61 -375 -8 -44 -16 -98
-19 -120 -3 -22 -9 -65 -15 -95 -6 -30 -18 -100 -26 -155 -36 -219 -46 -282
-57 -340 -6 -33 -14 -85 -18 -115 -4 -30 -12 -82 -18 -115 -6 -33 -18 -103
-26 -155 -26 -159 -69 -422 -91 -555 -8 -44 -21 -124 -29 -178 -9 -53 -23
-141 -32 -195 -8 -53 -21 -133 -29 -177 -7 -44 -21 -125 -29 -180 -9 -55 -21
-125 -27 -155 -6 -30 -14 -84 -18 -120 -5 -36 -13 -90 -19 -120 -6 -30 -18
-100 -27 -155 -9 -55 -23 -138 -31 -185 -9 -47 -14 -101 -12 -120 l3 -35 4406
-3 c3720 -2 4408 0 4418 12 8 9 8 28 2 62 -22 114 -34 183 -41 244 -5 36 -13
90 -19 120 -6 30 -18 100 -26 155 -9 55 -23 136 -30 180 -7 44 -21 127 -30
185 -9 58 -23 141 -30 185 -28 162 -44 262 -60 365 -9 58 -23 141 -30 185 -19
110 -49 293 -90 550 -9 55 -22 136 -30 180 -7 44 -20 123 -29 175 -39 245 -48
300 -61 375 -7 44 -21 127 -30 185 -9 58 -23 141 -30 185 -7 44 -21 125 -30
180 -8 55 -21 127 -27 160 -6 33 -14 85 -18 115 -4 30 -12 82 -18 115 -6 33
-18 105 -27 160 -9 55 -23 138 -30 185 -8 47 -21 130 -30 185 -9 55 -22 136
-30 180 -15 88 -42 257 -90 550 -8 55 -21 127 -27 160 -6 33 -14 85 -18 115
-4 30 -12 82 -18 115 -6 33 -18 105 -27 160 -9 55 -21 127 -27 160 -6 33 -14
85 -18 115 -10 81 -31 201 -39 230 l-6 25 -770 5 c-424 3 -776 9 -782 13 -10
6 -13 80 -14 310 0 447 -12 551 -89 782 -30 92 -49 143 -59 163 -5 9 -19 37
-31 62 -139 293 -433 612 -721 782 -81 48 -263 138 -279 138 -5 0 -24 6 -42
14 -32 13 -93 32 -186 56 -183 47 -495 62 -697 33z m555 -422 c111 -25 215
-58 273 -87 16 -8 33 -14 38 -14 5 0 59 -30 119 -66 207 -124 406 -325 523
-526 57 -100 66 -120 120 -263 55 -149 79 -382 75 -718 -2 -198 -6 -239 -18
-247 -9 -6 -552 -9 -1435 -7 l-1420 2 -3 335 c-4 421 8 502 108 748 31 78 135
256 174 299 6 6 40 44 76 85 123 141 311 286 450 348 120 54 181 75 325 111
109 27 473 27 595 0z m-1101 -3417 c58 -9 123 -23 144 -30 20 -8 46 -14 57
-14 11 0 34 -6 52 -14 18 -8 53 -22 78 -31 40 -15 148 -68 205 -99 53 -30 116
-75 186 -132 42 -35 79 -64 83 -64 3 0 40 28 83 63 107 88 161 122 283 182
100 48 131 62 155 68 11 3 34 10 50 16 247 84 588 94 831 25 28 -8 58 -14 67
-14 9 0 31 -6 49 -14 18 -8 53 -22 78 -31 40 -16 149 -68 205 -99 11 -6 36
-23 56 -38 20 -16 40 -28 44 -28 3 0 29 -19 57 -42 148 -123 271 -257 360
-393 50 -77 136 -251 149 -299 4 -17 12 -44 18 -61 43 -126 66 -283 66 -460 0
-178 -18 -295 -75 -480 -60 -194 -179 -390 -343 -561 -231 -242 -464 -373
-802 -450 -117 -26 -476 -27 -590 -1 -100 24 -178 45 -230 64 -40 15 -223 104
-260 126 -18 11 -176 129 -230 171 l-25 20 -33 -30 c-132 -125 -343 -245 -527
-303 -187 -58 -237 -65 -470 -65 -233 0 -283 7 -470 65 -102 32 -253 102 -329
152 -255 170 -462 401 -575 642 -10 22 -24 51 -31 65 -16 32 -68 207 -86 285
-22 99 -24 471 -4 580 44 233 150 471 286 645 94 121 264 280 379 355 165 108
364 189 530 215 30 5 78 13 105 18 83 16 308 13 424 -4z"/>
<path d="M3290 4435 c-169 -24 -296 -72 -443 -168 -80 -52 -253 -227 -309
-312 -46 -72 -118 -216 -118 -237 0 -7 -6 -30 -14 -53 -54 -155 -54 -455 0
-610 8 -23 14 -47 14 -54 0 -7 20 -54 44 -105 50 -103 135 -224 217 -305 48
-48 171 -146 224 -178 42 -26 166 -83 180 -83 8 0 29 -6 47 -14 105 -44 369
-60 515 -30 135 27 259 72 348 127 39 24 171 126 211 164 39 36 166 192 235
288 18 25 35 45 39 45 14 0 41 -30 115 -130 116 -157 249 -285 380 -367 197
-124 501 -173 752 -123 227 45 375 123 546 289 63 61 145 158 174 206 41 68
113 230 113 254 0 10 8 36 17 57 25 57 25 457 0 524 -9 25 -17 53 -17 62 0 34
-83 204 -143 293 -53 79 -205 230 -287 285 -215 146 -466 209 -727 181 -65 -7
-136 -19 -158 -27 -23 -8 -49 -14 -59 -14 -10 0 -30 -6 -44 -13 -15 -8 -61
-31 -102 -51 -97 -48 -103 -51 -182 -114 -89 -71 -171 -160 -275 -298 -49 -66
-92 -114 -102 -113 -9 0 -29 20 -46 44 -74 110 -186 243 -260 311 -71 65 -176
144 -193 144 -3 0 -13 6 -21 13 -9 7 -36 21 -61 31 -25 10 -54 22 -65 27 -53
24 -130 41 -235 54 -133 17 -193 17 -310 0z"/>
</g>
</svg>
