<?xml version="1.0" standalone="no"?>
<!DOCTYPE svg PUBLIC "-//W3C//DTD SVG 20010904//EN"
 "http://www.w3.org/TR/2001/REC-SVG-20010904/DTD/svg10.dtd">
<svg version="1.0" xmlns="http://www.w3.org/2000/svg"
 width="900.000000pt" height="879.000000pt" viewBox="0 0 900.000000 879.000000"
 preserveAspectRatio="xMidYMid meet">
<metadata>
Created by potrace 1.10, written by Peter Selinger 2001-2011
</metadata>
<g transform="translate(0.000000,879.000000) scale(0.100000,-0.100000)"
fill="#000000" stroke="none">
<path d="M4180 8703 c-159 -27 -315 -70 -425 -119 -63 -27 -181 -86 -210 -105
-16 -10 -37 -22 -45 -26 -18 -8 -143 -94 -150 -102 -3 -3 -34 -30 -70 -60 -99
-82 -224 -213 -304 -320 -40 -53 -75 -103 -79 -111 -4 -8 -16 -28 -26 -45 -34
-52 -78 -136 -106 -200 -10 -22 -24 -52 -32 -67 -7 -14 -13 -33 -13 -42 0 -8
-6 -30 -14 -48 -28 -68 -70 -245 -82 -348 -3 -30 -9 -212 -12 -405 l-7 -350
-775 -5 c-426 -3 -776 -6 -777 -8 0 -1 -4 -26 -7 -54 -7 -54 -28 -185 -48
-293 -6 -33 -14 -85 -18 -115 -4 -30 -12 -82 -18 -115 -6 -33 -18 -105 -27
-160 -9 -55 -22 -136 -30 -180 -8 -44 -16 -98 -19 -120 -3 -22 -9 -65 -15 -95
-6 -30 -18 -100 -26 -155 -36 -219 -46 -282 -57 -340 -6 -33 -14 -85 -18 -115
-4 -30 -12 -82 -18 -115 -6 -33 -18 -105 -27 -160 -32 -194 -46 -281 -57 -340
-6 -33 -14 -85 -18 -115 -4 -30 -12 -82 -18 -115 -6 -33 -18 -105 -27 -160 -9
-55 -22 -136 -30 -180 -7 -44 -21 -125 -29 -180 -9 -55 -21 -125 -27 -155 -6
-30 -14 -84 -18 -120 -5 -36 -13 -90 -19 -120 -6 -30 -18 -100 -27 -155 -8
-55 -20 -125 -26 -155 -6 -30 -12 -73 -15 -95 -3 -22 -11 -76 -19 -120 -7 -44
-21 -125 -30 -180 -9 -55 -23 -140 -31 -190 -8 -49 -19 -115 -25 -145 -6 -30
-12 -73 -15 -95 -3 -22 -11 -76 -19 -120 -7 -44 -21 -125 -30 -180 -8 -55 -21
-127 -27 -160 -6 -33 -14 -85 -18 -115 -4 -30 -12 -82 -18 -115 -6 -33 -19
-105 -27 -160 -38 -231 -46 -283 -56 -335 -6 -30 -14 -84 -19 -120 -4 -36 -13
-87 -18 -115 -17 -85 -35 -216 -30 -220 3 -3 2004 -5 4448 -5 3379 0 4445 3
4451 12 9 15 -4 112 -43 323 -6 33 -14 85 -18 115 -4 30 -12 82 -18 115 -17
91 -41 236 -46 275 -2 19 -9 64 -15 100 -7 36 -19 108 -27 160 -8 52 -22 127
-30 165 -8 39 -14 82 -14 97 0 15 -6 60 -14 100 -8 40 -22 118 -31 173 -8 55
-20 125 -26 155 -6 30 -12 73 -15 95 -3 22 -11 76 -19 120 -7 44 -21 125 -30
180 -35 214 -45 273 -60 370 -9 55 -23 136 -30 180 -8 44 -21 125 -30 180 -8
55 -20 125 -26 155 -6 30 -12 73 -15 95 -3 22 -11 76 -19 120 -8 44 -21 125
-30 180 -9 55 -21 127 -27 160 -6 33 -14 85 -18 115 -4 30 -12 82 -18 115 -10
57 -17 94 -57 340 -9 55 -23 136 -30 180 -8 44 -16 98 -19 120 -3 22 -9 65
-15 95 -6 30 -18 100 -26 155 -9 55 -23 134 -31 175 -8 42 -14 90 -14 107 0
17 -5 44 -10 58 -6 15 -14 61 -19 103 -5 42 -14 102 -20 132 -6 30 -18 100
-26 155 -9 55 -23 136 -30 180 -7 44 -21 127 -30 185 -9 58 -23 137 -31 175
-8 39 -14 81 -14 95 0 13 -8 60 -17 102 l-16 78 -778 0 c-513 0 -780 3 -784
10 -3 6 -6 123 -5 261 1 351 -15 531 -67 734 -8 33 -21 75 -29 93 -8 18 -14
37 -14 43 0 6 -7 27 -16 47 -8 21 -21 51 -28 67 -55 126 -163 305 -244 405
-123 150 -309 320 -462 421 -179 119 -487 240 -670 264 -25 3 -67 10 -95 15
-80 14 -438 10 -535 -7z m585 -419 c140 -30 208 -53 335 -112 151 -70 264
-155 418 -311 220 -224 351 -491 391 -796 8 -59 16 -561 11 -703 0 -10 -293
-12 -1447 -10 l-1448 3 0 325 c0 378 9 456 77 665 18 55 91 212 121 260 141
226 436 494 627 570 8 4 29 12 45 19 132 58 268 94 405 106 118 11 381 2 465
-16z"/>
</g>
</svg>
