<?xml version="1.0" standalone="no"?>
<!DOCTYPE svg PUBLIC "-//W3C//DTD SVG 20010904//EN"
 "http://www.w3.org/TR/2001/REC-SVG-20010904/DTD/svg10.dtd">
<svg version="1.0" xmlns="http://www.w3.org/2000/svg"
 width="768.000000pt" height="768.000000pt" viewBox="0 0 768.000000 768.000000"
 preserveAspectRatio="xMidYMid meet">
<metadata>
Created by potrace 1.10, written by Peter Selinger 2001-2011
</metadata>
<g transform="translate(0.000000,768.000000) scale(0.100000,-0.100000)"
fill="#000000" stroke="none">
<path d="M0 6620 l0 -269 78 -60 c42 -34 111 -88 152 -121 41 -33 111 -88 155
-122 44 -34 82 -65 85 -69 5 -8 55 -47 212 -168 46 -36 85 -67 88 -71 3 -3 36
-30 75 -60 38 -30 79 -62 90 -72 43 -35 384 -307 460 -366 44 -34 114 -89 155
-122 41 -33 109 -87 150 -120 41 -33 109 -87 150 -120 41 -33 111 -88 155
-122 44 -34 86 -68 93 -75 7 -7 41 -34 75 -60 34 -26 67 -52 72 -59 6 -6 39
-33 75 -60 36 -27 110 -85 165 -129 55 -45 143 -114 195 -155 52 -40 97 -76
100 -80 3 -3 33 -27 67 -53 34 -26 68 -53 75 -60 7 -7 49 -41 93 -75 44 -34
114 -89 155 -122 41 -33 111 -88 155 -122 44 -34 85 -67 90 -74 6 -6 39 -33
75 -60 36 -26 70 -53 75 -60 6 -6 39 -33 75 -59 36 -27 67 -52 70 -55 17 -19
115 -90 124 -90 12 0 75 43 85 58 3 4 42 36 86 70 44 34 114 89 155 122 41 33
111 88 155 122 44 35 89 70 100 80 11 9 92 73 180 143 88 69 169 134 180 143
11 10 48 39 82 65 34 26 68 53 75 60 7 7 42 35 78 61 36 27 70 54 75 60 6 7
39 34 75 60 36 27 70 54 75 60 6 7 39 34 75 60 36 27 70 54 75 60 6 7 46 40
90 74 44 34 114 89 155 122 147 117 232 186 293 233 34 27 72 57 84 67 12 10
62 50 110 88 93 73 394 312 428 340 11 10 48 39 82 65 34 26 68 53 75 60 7 7
42 35 78 61 36 27 70 54 75 60 6 7 46 40 90 74 44 34 112 88 152 119 39 32
100 80 135 107 121 95 403 321 416 333 8 7 18 11 23 8 5 -4 9 104 9 269 l0
276 -3840 0 -3840 0 0 -270z"/>
<path d="M0 3564 c0 -1709 1 -1796 17 -1783 10 8 29 24 43 36 14 12 46 39 71
60 120 100 143 119 153 128 6 6 36 30 66 55 30 25 60 49 66 55 6 5 33 28 59
50 27 22 65 54 84 71 20 17 119 100 221 185 102 85 196 164 210 176 28 23 92
77 165 138 27 22 55 47 64 55 9 9 39 33 66 55 28 22 66 54 86 73 20 18 52 45
71 60 37 28 399 330 524 437 39 33 93 78 119 100 102 84 108 91 99 107 -9 16
-34 37 -216 178 -46 35 -87 69 -93 76 -5 6 -39 33 -75 60 -36 26 -69 53 -75
60 -5 6 -39 33 -75 59 -36 27 -67 52 -70 55 -3 3 -36 30 -75 60 -38 30 -72 57
-75 60 -3 3 -25 22 -50 41 -25 19 -121 96 -215 171 -93 74 -193 152 -221 174
-69 53 -198 156 -204 164 -3 3 -41 34 -85 68 -44 34 -114 89 -155 122 -41 33
-111 88 -155 122 -44 34 -84 67 -90 74 -5 6 -39 33 -75 59 -36 27 -67 52 -70
55 -12 14 -98 80 -104 80 -3 0 -6 -808 -6 -1796z"/>
<path d="M7450 5194 c-113 -90 -212 -170 -220 -177 -8 -7 -44 -34 -80 -61 -36
-27 -69 -54 -75 -60 -5 -7 -39 -34 -75 -60 -36 -27 -69 -54 -75 -60 -5 -7 -46
-40 -90 -74 -44 -34 -114 -89 -155 -122 -147 -117 -232 -186 -293 -233 -34
-27 -71 -56 -82 -65 -11 -9 -72 -57 -135 -107 -63 -49 -117 -92 -120 -95 -3
-3 -33 -27 -67 -53 -34 -26 -68 -53 -75 -60 -7 -7 -42 -35 -78 -62 -36 -27
-76 -59 -90 -72 -14 -12 -50 -42 -81 -65 -135 -103 -179 -142 -179 -157 0 -9
16 -27 34 -41 47 -35 130 -103 196 -160 30 -26 78 -67 105 -90 28 -23 61 -52
75 -63 14 -12 47 -40 75 -61 60 -48 93 -76 114 -97 9 -8 124 -105 256 -214
132 -110 272 -227 311 -260 39 -33 92 -78 119 -100 26 -22 53 -45 59 -50 6 -6
34 -28 61 -50 28 -22 57 -46 66 -55 9 -8 37 -33 64 -55 26 -22 67 -56 90 -75
23 -19 63 -53 90 -75 27 -22 65 -54 84 -71 154 -133 377 -314 388 -314 11 0
13 326 13 1790 0 1426 -3 1790 -12 1790 -7 -1 -105 -75 -218 -166z"/>
<path d="M2724 3047 c-39 -34 -93 -80 -119 -102 -27 -22 -67 -56 -90 -75 -22
-19 -63 -53 -90 -75 -26 -22 -55 -47 -64 -55 -9 -9 -38 -33 -66 -55 -27 -22
-55 -44 -61 -50 -6 -5 -33 -28 -59 -50 -27 -22 -80 -67 -119 -100 -39 -34 -85
-72 -102 -85 -38 -30 -439 -365 -474 -396 -23 -21 -41 -36 -165 -139 -27 -22
-55 -47 -64 -55 -9 -9 -38 -33 -66 -55 -27 -22 -66 -54 -86 -73 -20 -18 -52
-45 -71 -60 -37 -28 -399 -330 -524 -437 -39 -33 -93 -78 -119 -100 -27 -22
-67 -56 -90 -75 -23 -19 -63 -53 -89 -75 -26 -21 -58 -49 -71 -61 -13 -12 -44
-36 -69 -54 -25 -18 -43 -37 -40 -41 8 -14 7601 -11 7609 2 4 6 -2 17 -14 25
-11 8 -75 61 -142 117 -67 56 -137 114 -157 129 -19 15 -51 43 -71 61 -20 18
-61 52 -91 76 -30 24 -79 65 -110 91 -62 54 -124 106 -195 165 -107 89 -141
118 -165 139 -35 31 -436 366 -474 396 -17 13 -63 51 -102 85 -39 33 -93 78
-119 100 -27 22 -55 47 -64 55 -9 9 -38 33 -66 55 -27 22 -55 44 -61 50 -6 5
-33 28 -59 50 -27 22 -80 67 -119 100 -39 34 -85 72 -102 85 -17 14 -152 126
-299 250 -147 124 -284 238 -304 253 -20 15 -37 32 -39 37 -12 33 -65 -1 -309
-196 -142 -113 -267 -213 -278 -222 -11 -10 -48 -39 -82 -65 -34 -26 -68 -53
-75 -60 -7 -7 -42 -35 -78 -61 -36 -27 -69 -54 -75 -60 -24 -28 -135 -106
-150 -106 -15 0 -76 44 -245 180 -147 117 -232 186 -293 233 -34 27 -71 56
-82 66 -12 9 -45 37 -75 60 -30 24 -71 56 -90 72 -133 109 -217 169 -234 168
-12 0 -53 -28 -92 -62z"/>
</g>
</svg>
