<?xml version="1.0" standalone="no"?>
<!DOCTYPE svg PUBLIC "-//W3C//DTD SVG 20010904//EN"
 "http://www.w3.org/TR/2001/REC-SVG-20010904/DTD/svg10.dtd">
<svg version="1.0" xmlns="http://www.w3.org/2000/svg"
 width="768.000000pt" height="768.000000pt" viewBox="0 0 768.000000 768.000000"
 preserveAspectRatio="xMidYMid meet">
<metadata>
Created by potrace 1.10, written by Peter Selinger 2001-2011
</metadata>
<g transform="translate(0.000000,768.000000) scale(0.100000,-0.100000)"
fill="#000000" stroke="none">
<path d="M3559 5797 c-53 -45 -167 -140 -254 -212 -160 -132 -230 -190 -275
-228 -14 -12 -47 -40 -75 -61 -59 -48 -92 -76 -114 -97 -9 -8 -36 -30 -61 -49
-25 -19 -52 -41 -61 -49 -20 -20 -50 -45 -114 -96 -27 -22 -82 -67 -121 -100
-39 -33 -142 -118 -229 -190 -158 -130 -228 -189 -275 -228 -14 -12 -47 -40
-75 -61 -59 -48 -92 -76 -114 -97 -9 -8 -36 -30 -61 -49 -25 -19 -52 -41 -61
-49 -20 -20 -50 -45 -114 -96 -107 -85 -164 -138 -159 -146 3 -5 153 -9 335
-9 l329 0 2 -957 3 -958 563 -3 c309 -1 562 1 562 5 1 5 2 287 3 628 l2 620
444 3 c349 2 446 0 453 -10 4 -7 8 -291 8 -631 l0 -617 593 2 592 3 5 955 5
955 333 3 c216 1 332 6 332 12 0 12 -49 56 -119 110 -42 32 -85 68 -115 95 -6
6 -33 29 -61 51 -27 21 -61 49 -75 61 -27 23 -368 305 -475 393 -37 30 -77 64
-89 75 -13 11 -54 45 -91 75 -37 30 -73 60 -79 65 -6 6 -33 29 -61 51 -27 21
-61 49 -75 61 -49 41 -120 100 -365 303 -137 113 -280 232 -319 265 -39 33
-91 76 -116 95 -25 19 -56 44 -70 56 -127 110 -159 134 -179 134 -9 0 -59 -38
-112 -83z"/>
</g>
</svg>
