<?xml version="1.0" standalone="no"?>
<!DOCTYPE svg PUBLIC "-//W3C//DTD SVG 20010904//EN"
 "http://www.w3.org/TR/2001/REC-SVG-20010904/DTD/svg10.dtd">
<svg version="1.0" xmlns="http://www.w3.org/2000/svg"
 width="900.000000pt" height="900.000000pt" viewBox="0 0 900.000000 900.000000"
 preserveAspectRatio="xMidYMid meet">
<metadata>
Created by potrace 1.10, written by Peter Selinger 2001-2011
</metadata>
<g transform="translate(0.000000,900.000000) scale(0.100000,-0.100000)"
fill="#000000" stroke="none">
<path d="M3835 7858 c-356 -39 -731 -184 -1047 -404 -156 -109 -356 -294 -473
-438 -22 -27 -44 -54 -50 -60 -84 -95 -291 -453 -324 -562 -5 -16 -19 -54 -31
-84 -12 -30 -26 -68 -30 -85 -42 -144 -53 -193 -70 -289 -36 -201 -36 -580 -1
-736 5 -25 17 -79 26 -120 36 -163 86 -305 178 -500 29 -62 138 -241 195 -321
250 -351 607 -642 987 -804 17 -7 46 -20 65 -28 213 -92 490 -151 766 -164
118 -6 358 16 472 42 276 64 404 110 626 224 54 28 102 49 106 46 7 -4 160
-204 200 -261 14 -20 821 -1093 1108 -1474 228 -301 250 -320 387 -320 110 0
185 43 242 138 25 42 28 56 28 137 0 99 -9 122 -85 215 -21 25 -50 64 -66 86
-16 23 -90 122 -164 219 -74 98 -142 188 -150 200 -8 12 -233 312 -500 665
-267 354 -500 663 -517 687 -18 23 -33 48 -33 53 0 6 37 53 83 104 45 50 92
104 104 118 27 33 153 208 153 213 0 2 16 27 35 57 30 45 114 209 160 313 22
51 59 153 81 230 30 104 46 178 74 358 16 100 12 437 -6 552 -18 116 -40 221
-60 285 -33 109 -55 176 -63 195 -5 11 -19 45 -31 75 -23 59 -95 205 -126 257
-122 204 -219 329 -388 498 -78 78 -154 152 -171 165 -69 56 -155 120 -161
120 -3 0 -23 13 -43 28 -20 16 -43 32 -51 35 -8 4 -28 16 -45 27 -16 11 -37
23 -45 27 -8 4 -35 19 -60 33 -78 45 -288 131 -405 165 -33 10 -71 22 -85 26
-168 56 -553 84 -795 57z m525 -563 c254 -47 360 -80 543 -172 356 -178 621
-464 787 -848 65 -151 103 -308 127 -530 23 -219 4 -457 -54 -665 -28 -101
-72 -225 -103 -288 -11 -23 -25 -52 -30 -65 -11 -23 -11 -24 -79 -132 -100
-156 -264 -332 -361 -387 -30 -17 -75 -50 -100 -73 -130 -123 -388 -229 -708
-290 -128 -25 -456 -25 -597 -1 -233 41 -466 124 -638 228 -157 96 -355 275
-469 424 -111 147 -217 363 -271 554 -107 376 -93 797 38 1160 24 66 97 223
112 241 7 8 13 19 13 23 0 10 97 154 144 211 59 74 212 224 281 276 224 169
477 275 790 332 115 21 464 22 575 2z"/>
</g>
</svg>
