<?xml version="1.0" ?><!DOCTYPE svg  PUBLIC '-//W3C//DTD SVG 1.1//EN'  'http://www.w3.org/Graphics/SVG/1.1/DTD/svg11.dtd'><svg height="2048px" style="shape-rendering:geometricPrecision; text-rendering:geometricPrecision; image-rendering:optimizeQuality; fill-rule:evenodd; clip-rule:evenodd" viewBox="0 0 2048 2048" width="2048px" xml:space="preserve" xmlns="http://www.w3.org/2000/svg" xmlns:xlink="http://www.w3.org/1999/xlink"><defs><style type="text/css">
   <![CDATA[
    .fil1 {fill:none}
    .fil0 {fill:#424242;fill-rule:nonzero}
   ]]>
  </style></defs><g id="Layer_x0020_1"><path class="fil0" d="M1130.63 1451.99c8.8689,9.98977 19.4941,18.8835 30.5516,25.3784 15.2067,8.94568 31.4504,15.6673 48.7819,20.1555 17.3102,4.48229 35.9067,6.72756 55.8461,6.72756 36.0473,0 71.9197,-5.7567 107.626,-17.2984 36.0213,-11.6433 72.0284,-29.1862 108.028,-52.6559l24.6874 -16.0949 0 29.4697 0 232.147 0 10.1906 -9.2504 4.30985c-31.8662,14.8453 -62.5193,27.5918 -91.956,38.2441 -29.4402,10.6524 -57.2776,19.0488 -83.5158,25.1918l-0.0625985 0c-26.3705,6.04843 -53.7697,10.6063 -82.2071,13.6488 -28.5768,3.05788 -57.9697,4.59804 -88.1835,4.59804 -34.7492,0 -62.5642,-2.19921 -88.5568,-6.59646 -25.9453,-4.38898 -49.6725,-10.9181 -76.4233,-19.6051 -26.8252,-8.79213 -51.7973,-19.5118 -74.9115,-32.0859 -23.3622,-12.7075 -44.6705,-27.2374 -63.9225,-43.5166l-0.0625985 -0.0625985c-19.2626,-16.5036 -35.6197,-33.5776 -49.0595,-51.1902 -13.6571,-17.8949 -24.3402,-36.3922 -32.0433,-55.4587 -7.59449,-18.9154 -13.2626,-41.8701 -16.9937,-68.8453 -3.67914,-26.5961 -5.52166,-57.0107 -5.52166,-91.2237l0 -500.226 -185.641 0 -16.0004 0 0 -16.0004 0 -208.508 0 -11.6162 11.1874 -3.57166c28.5614,-9.11576 59.413,-20.3103 88.2119,-33.5209 28.1351,-12.9071 54.1571,-27.6933 73.7505,-44.2359l0.0625985 0c19.9051,-16.7728 37.904,-35.3091 54.0225,-55.6394 16.0949,-20.2996 30.1524,-42.2055 42.1985,-65.7485 12.0874,-23.5382 22.3252,-50.4674 30.711,-80.7237 8.41654,-30.3744 14.9492,-64.2508 19.591,-101.562l1.7504 -14.0634 14.1248 0 211.152 0 16.0004 0 0 16.0004 0 324.437 327.323 0 16.0004 0 0 16.0004 0 262.752 0 16.0004 -16.0004 0 -327.323 0 0 361.428c0,32.191 -0.0437008,-4.10551 -0.0862205,25.3418 -0.0956694,68.1508 -0.153543,108.783 7.01457,127.865 3.81614,10.1185 10.5898,20.5795 19.0996,30.163z"/></g><rect class="fil1" height="2048" width="2048"/></svg>