<?xml version="1.0" encoding="utf-8"?>
<!-- Generator: Adobe Illustrator 19.0.1, SVG Export Plug-In . SVG Version: 6.00 Build 0)  -->
<svg version="1.1" id="All_glyphs" xmlns="http://www.w3.org/2000/svg" xmlns:xlink="http://www.w3.org/1999/xlink" x="0px" y="0px"
	 viewBox="0 0 94 90" style="enable-background:new 0 0 94 90;" xml:space="preserve">
<g>
	<path d="M73.6,67.2C61.3,62.7,57.3,59,57.3,50.8c0-4.9,3.8-3.3,5.4-12.2c0.7-3.7,4-0.1,4.6-8.5c0-3.4-1.8-4.2-1.8-4.2
		s0.9-5,1.3-8.8C67.3,12.3,64.1,0,47,0S26.7,12.3,27.1,17.1c0.4,3.8,1.3,8.8,1.3,8.8s-1.8,0.8-1.8,4.2c0.6,8.4,4,4.8,4.6,8.5
		c1.7,8.9,5.4,7.3,5.4,12.2c0,8.1-3.9,11.9-16.3,16.4C8,71.7,0,76.3,0,79.5C0,82.6,0,90,0,90h47h47c0,0,0-7.4,0-10.5
		C94,76.3,86,71.7,73.6,67.2z"/>
</g>
</svg>
