<?xml version="1.0" ?><!DOCTYPE svg  PUBLIC '-//W3C//DTD SVG 1.1//EN'  'http://www.w3.org/Graphics/SVG/1.1/DTD/svg11.dtd'><svg enable-background="new 0 0 30 30" height="30px" id="Vimeo" version="1.1" viewBox="0 0 30 30" width="30px" xml:space="preserve" xmlns="http://www.w3.org/2000/svg" xmlns:xlink="http://www.w3.org/1999/xlink"><path d="M1,10c0,0,3-3,4,0c1,4,3.232,11.465,5,15c1,2,3,3,5,3s3.906-1.104,5-2c2.788-2.286,8.325-7.555,10-17  c1.677-9.441-11.629-8.226-13,0c3.428-2.058,5,1,4,4s-3,6-4,6c-0.836,0-2.042-2.171-3-6C13.097,9.385,12,2,9,2S5,3,5,3  C2.212,5.286,0,9.035,0,9.035L1,10z" id="v"/></svg>