<?xml version="1.0" standalone="no"?>
<!DOCTYPE svg PUBLIC "-//W3C//DTD SVG 1.1//EN" "http://www.w3.org/Graphics/SVG/1.1/DTD/svg11.dtd" >
<svg xmlns="http://www.w3.org/2000/svg">
<metadata>Generated by IcoMoon</metadata>
<defs>
<font id="icomoon" horiz-adv-x="1024">
<font-face units-per-em="1024" ascent="960" descent="-64" />
<missing-glyph horiz-adv-x="1024" />
<glyph unicode="&#x20;" horiz-adv-x="512" d="" />
<glyph unicode="&#xe900;" glyph-name="arr-right" d="M777.312 503.168l-306.752 306.752c-28.096 28.096-74.144 28.096-102.24 0l-25.6-25.6c-28.096-28.064-28.096-74.112 0-102.208l234.048-234.112-234.080-234.080c-28.096-28.096-28.096-74.144 0-102.208l25.6-25.6c28.096-28.128 74.144-28.128 102.24 0l306.752 306.784c15.104 15.072 21.824 35.296 20.704 55.136 1.152 19.808-5.568 40.032-20.672 55.136z" />
<glyph unicode="&#xe901;" glyph-name="cross" d="M652.064 431.392l210.144 210.112c30.784 30.816 30.784 81.248 0 112.064l-28.032 28c-30.816 30.848-81.248 30.848-112.032 0l-210.144-210.112-210.144 210.144c-30.784 30.816-81.216 30.816-112.032 0l-28.032-28c-30.784-30.816-30.784-81.248 0-112.064l210.112-210.112-210.112-210.144c-30.784-30.816-30.784-81.216 0-112.032l28.032-28.032c30.816-30.816 81.248-30.816 112.032 0l210.144 210.112 210.144-210.112c30.784-30.816 81.216-30.816 112.032 0l28.032 28.032c30.784 30.816 30.784 81.216 0 112.032l-210.144 210.112z" />
<glyph unicode="&#xe902;" glyph-name="arr-down" d="M472.64 198.56l-306.72 306.72c-28.128 28.128-28.128 74.144 0 102.24l25.6 25.632c28.064 28.096 74.112 28.096 102.208 0l234.080-234.080 234.112 234.080c28.096 28.096 74.144 28.096 102.208 0l25.6-25.632c28.128-28.096 28.128-74.112 0-102.24l-306.784-306.72c-15.072-15.104-35.328-21.824-55.136-20.704-19.808-1.12-40.032 5.6-55.168 20.704z" />
<glyph unicode="&#xe903;" glyph-name="fb" d="M340.266 578.666h90.133v114.667c0 0.35 0.022 0.695 0.066 1.033 1.857 35.24 8.98 67.089 25.397 90.468 17.029 24.251 43.505 39.166 83.53 39.166h144.341c4.418 0 8-3.582 8-8v-115.579c0-4.418-3.582-8-8-8h-56.979c-14.697 0-25.724-2.251-32.878-8.158l-5.093 6.156 5.093-6.169c-0.155-0.128-0.313-0.247-0.474-0.362-6.631-5.752-10.368-15.419-11.181-30.369h0.011v-74.853h101.5c4.418 0 8-3.582 8-8v-122.666c0-4.418-3.582-8-8-8h-101.5v-360c0-4.418-3.582-8-8-8h-135.834c-4.418 0-8 3.582-8 8v360h-90.133c-4.418 0-8 3.582-8 8v122.666c0 4.418 3.582 8 8 8z" />
<glyph unicode="&#xe904;" glyph-name="google" d="M880 406.545h-58.91v-66.91h-82.91v66.91h-66.915v82.91h66.915v66.911h82.91v-66.911h66.91v-82.91zM378.178 205.82c-67.442 0-127.982 26.82-171.671 70.509s-70.508 104.23-70.508 171.671c0 67.442 26.82 127.983 70.509 171.671s104.229 70.509 171.671 70.509c32.229 0 62.019-5.855 88.951-16.743 27.984-11.313 52.785-28.007 73.946-49.168l5.797-5.798-75.186-71.218-5.491 5.492c-8.893 8.894-21.82 18.796-39.334 25.676-13.398 5.264-29.53 8.782-48.684 8.782-37.674 0-71.44-15.6-95.865-40.595-24.777-25.354-39.984-60.371-39.984-98.609s15.207-73.255 39.984-98.609c24.426-24.995 58.19-40.595 95.865-40.595 36.047 0 62.539 10.319 81.689 24.682 23.577 17.682 36.212 41.5 41.836 59.683h-131.526v96.293h235.041l1.515-6.063c3.594-14.382 3.594-24.769 3.594-42.075v-0.011c0-69.056-23.427-127.875-64.204-169.519-40.798-41.663-98.807-65.967-167.944-65.967h-0.002z" />
<glyph unicode="&#xe905;" glyph-name="google-plus" d="M943.172 493.056h-135.683v135.647c0 10.35-8.399 18.767-18.73 18.767h-38.635c-10.404 0-18.803-8.417-18.803-18.767v-135.647h-135.683c-10.332 0-18.767-8.435-18.767-18.803v-38.635c0-10.368 8.435-18.767 18.767-18.767h135.683v-135.719c0-10.368 8.399-18.767 18.803-18.767h38.635c10.332 0 18.73 8.399 18.73 18.767v135.737h135.683c10.332 0 18.767 8.399 18.767 18.767v38.635c0 10.368-8.435 18.785-18.767 18.785zM487.21 374.099c-28.538 20.212-54.476 49.852-54.927 58.955 0 16.581 1.481 24.51 38.671 53.482 48.082 37.642 74.561 87.132 74.561 139.422 0 47.413-14.486 89.534-39.141 119.12h19.128c3.956 0 7.839 1.228 11 3.54l53.374 38.671c6.629 4.75 9.41 13.222 6.882 20.97-2.547 7.731-9.699 13.005-17.845 13.005h-238.71c-26.118 0-52.651-4.606-78.697-13.565-86.988-30.001-147.821-104.129-147.821-180.225 0-107.813 83.52-189.527 195.162-192.091-2.186-8.543-3.287-16.96-3.287-25.215 0-16.617 4.208-32.349 12.878-47.558-1.011 0-1.987 0-3.071 0-106.422 0-202.477-52.218-238.945-129.921-9.501-20.212-14.341-40.64-14.341-60.815 0-19.616 5.039-38.491 14.919-56.228 22.921-41.001 72.14-72.809 138.663-89.607 34.336-8.67 71.237-13.095 109.547-13.095 34.427 0 67.246 4.443 97.59 13.222 94.61 27.473 155.786 97.12 155.786 177.515-0.018 77.144-24.817 123.329-91.377 170.417zM185.734 197.504c0 56.119 71.291 105.339 152.553 105.339h2.186c17.683-0.217 34.932-2.818 51.188-7.803 5.581-3.847 10.964-7.514 16.13-11.036 37.642-25.648 62.513-42.573 69.431-69.738 1.626-6.846 2.438-13.691 2.438-20.32 0-69.883-52.109-105.303-154.938-105.303-77.938 0-138.989 47.793-138.989 108.861zM259.68 727.756c12.698 14.504 29.333 22.162 48.009 22.162l2.113-0.036c52.76-1.553 103.244-60.346 112.527-131.059 5.22-39.592-3.594-76.819-23.499-99.505-12.734-14.54-29.134-22.198-48.569-22.198 0 0 0 0-0.036 0h-0.849c-51.676 1.589-103.244 62.622-112.473 133.245-5.184 39.484 3.125 74.976 22.776 97.391z" />
<glyph unicode="&#xe906;" glyph-name="home" d="M474.533 708.933c-7.067-6-22.267-18.667-33.867-28.267-21.333-17.6-30.667-25.333-36.667-30.4-1.867-1.6-6.267-5.333-10-8.133-7.867-6.4-12.267-10.133-15.2-12.933-1.2-1.067-4.8-4-8.133-6.533s-6.933-5.467-8.133-6.533c-2.667-2.667-6.667-6-15.2-12.8-3.6-2.933-10.933-8.933-16.133-13.333s-18.933-15.733-30.533-25.333c-21.067-17.333-30.4-25.2-36.667-30.4-1.867-1.6-6.267-5.333-10-8.133-7.867-6.4-12.267-10.133-15.2-12.933-1.2-1.067-4.8-4-8.133-6.533s-6.933-5.467-8.133-6.533c-2.667-2.667-6.667-6-15.2-12.8-14.267-11.333-21.867-18.4-21.2-19.467 0.4-0.667 20.4-1.2 44.667-1.2h43.867l0.267-127.6 0.4-127.733 75.067-0.4c41.2-0.133 74.933 0.133 74.933 0.667 0.133 0.667 0.267 38.267 0.4 83.733l0.267 82.667 59.2 0.4c46.533 0.267 59.467 0 60.4-1.333 0.533-0.933 1.067-38.8 1.067-84.133v-82.267l158 0.667 1.333 254.667 44.4 0.4c28.8 0.133 44.267 0.8 44.267 1.6 0 1.6-6.533 7.467-15.867 14.667-5.6 4.267-11.333 9.067-15.333 12.667-0.8 0.8-4.4 3.867-8.133 6.8-3.6 2.8-8.133 6.533-10 8.133-3.6 3.067-49.067 40.667-63.333 52.4-4.933 4-10.267 8.533-11.867 10-1.733 1.467-7.2 6-12.133 10s-9.733 8-10.533 8.667c-0.8 0.8-4.4 3.867-8.133 6.8-3.6 2.8-8.133 6.533-10 8.133-6.533 5.467-16 13.333-48.667 40.4-18.267 15.067-37.333 30.933-42.533 35.333s-12.133 10.133-15.467 12.667c-3.333 2.533-7.467 5.867-9.333 7.467-16.933 14.667-21.2 17.867-23.867 17.867-1.2 0-7.867-5.067-14.933-11.067z" />
<glyph unicode="&#xe907;" glyph-name="pinterest" d="M512.027 866.835c-245.628 0-444.782-199.1-444.782-444.782 0-182.103 109.511-338.558 266.219-407.357-1.246 31.085-0.217 68.329 7.749 102.124 8.543 36.124 57.221 242.359 57.221 242.359s-14.215 28.394-14.215 70.37c0 65.891 38.202 115.11 85.777 115.11 40.459 0 60.003-30.381 60.003-66.74 0-40.676-25.955-101.491-39.285-157.827-11.126-47.197 23.661-85.687 70.208-85.687 84.26 0 141.030 108.229 141.030 236.47 0 97.482-65.656 170.453-185.065 170.453-134.925 0-218.968-100.606-218.968-212.989 0-38.761 11.433-66.072 29.333-87.24 8.218-9.699 9.374-13.619 6.394-24.763-2.131-8.182-7.026-27.906-9.049-35.709-2.962-11.289-12.084-15.317-22.271-11.144-62.134 25.359-91.088 93.418-91.088 169.929 0 126.327 106.549 277.833 317.877 277.833 169.785 0 281.553-122.895 281.553-254.803 0-174.445-96.976-304.8-239.956-304.8-48.027 0-93.201 25.973-108.662 55.415 0 0-25.829-102.485-31.284-122.245-9.428-34.318-27.906-68.582-44.776-95.278 40.008-11.813 82.255-18.243 126.056-18.243 245.61 0 444.745 199.1 444.745 444.745-0.018 245.7-199.172 444.8-444.763 444.8z" />
<glyph unicode="&#xe908;" glyph-name="plus" d="M384 960h256v-384h384v-256h-384v-384h-256v384h-384v256h384z" />
<glyph unicode="&#xe909;" glyph-name="search" d="M436.338 830.066c-40.505-4.437-83.172-20.935-119.125-45.966-17.749-12.402-40.505-33.451-53.817-49.835-2.503-3.072-5.006-6.144-5.689-6.827-9.557-10.809-33.109-51.541-36.864-63.943-0.569-1.82-2.162-6.144-3.527-9.557s-2.958-7.737-3.413-9.671c-4.779-16.384-6.030-21.959-7.964-32.882-4.096-22.869-4.096-65.991-0.114-83.74 0.569-2.844 1.934-8.988 2.958-13.653 4.096-18.546 9.785-34.702 20.252-56.889 3.3-7.054 15.701-27.42 22.187-36.523 28.444-39.936 69.063-73.045 112.299-91.477 1.934-0.796 5.234-2.276 7.396-3.186 24.235-10.468 55.751-17.18 87.154-18.66 13.426-0.683 40.732 1.82 53.703 4.779 31.403 7.282 45.966 12.516 71.225 25.486 6.144 3.186 11.605 5.575 12.060 5.234 0.796-0.455 18.204-23.211 22.756-29.696 1.593-2.276 93.412-124.359 126.066-167.708 25.941-34.247 28.444-36.409 44.032-36.409 12.516 0 21.049 4.892 27.534 15.701 2.844 4.779 3.186 6.372 3.186 15.588 0 11.264-1.024 13.881-9.671 24.462-2.389 2.844-5.689 7.282-7.509 9.785-1.82 2.617-10.24 13.881-18.66 24.917-8.42 11.15-16.156 21.39-17.067 22.756s-26.51 35.499-56.889 75.662c-30.379 40.277-56.889 75.435-58.823 78.165-2.048 2.617-3.755 5.461-3.755 6.030 0 0.683 4.21 6.030 9.444 11.833 5.12 5.689 10.468 11.833 11.833 13.426 3.072 3.755 17.408 23.666 17.408 24.235 0 0.228 1.82 3.072 3.982 6.485 3.413 5.12 12.971 23.78 18.204 35.612 2.503 5.803 6.713 17.408 9.216 26.169 3.413 11.833 5.234 20.252 8.42 40.732 1.82 11.378 1.365 49.721-0.683 62.805-2.048 13.198-4.551 25.145-6.827 32.427-3.755 12.402-6.258 20.025-7.168 22.187-0.569 1.252-2.162 5.12-3.527 8.533-2.617 6.713-10.809 23.324-14.336 29.241-13.881 23.211-24.917 37.433-44.146 56.661-8.875 8.875-17.522 17.294-19.456 18.773-7.851 6.372-17.636 13.653-18.318 13.653-0.341 0-2.617 1.479-4.892 3.186-2.276 1.82-4.892 3.641-5.803 3.982-0.91 0.455-3.186 1.82-5.12 3.072-1.82 1.252-4.21 2.617-5.12 3.072s-3.982 2.162-6.827 3.755c-8.875 5.12-32.768 14.905-46.080 18.773-3.755 1.138-8.078 2.503-9.671 2.958-19.115 6.372-62.919 9.557-90.453 6.485zM496.071 766.009c28.9-5.348 40.96-9.102 61.781-19.57 40.505-20.252 70.656-52.793 89.543-96.484 7.396-17.18 11.719-35.044 14.45-60.302 2.617-24.917 0.455-51.996-6.144-75.662-3.186-11.492-8.192-25.6-11.719-32.768-1.252-2.617-2.844-5.916-3.413-7.396-1.252-2.617-1.252-2.731-8.988-15.019-11.378-17.749-30.037-37.774-41.074-44.032-3.413-1.934-8.533-5.689-11.378-8.306-14.791-13.995-44.146-26.055-80.555-32.996-14.564-2.844-51.883-2.844-67.925-0.114-26.51 4.665-53.020 14.108-72.59 25.941-17.863 10.923-40.391 31.289-53.362 48.242-12.629 16.725-24.69 41.301-30.834 63.033-12.174 42.78-10.581 90.681 4.324 131.982 2.731 7.509 11.036 25.372 12.743 27.42 0.796 0.91 1.479 2.162 1.479 2.617 0 1.138 11.036 17.522 16.384 24.007 6.713 8.42 24.121 25.486 31.972 31.403 25.486 19.228 54.272 31.289 89.884 37.774 13.084 2.389 52.793 2.503 65.422 0.228z" />
<glyph unicode="&#xe90a;" glyph-name="tumblr" d="M565.315 234.005c4.434-4.995 9.747-9.442 15.276-12.689 7.603-4.473 15.725-7.834 24.391-10.078 8.655-2.241 17.953-3.364 27.923-3.364 18.024 0 35.96 2.878 53.813 8.649 18.011 5.822 36.014 14.593 54.014 26.328l12.344 8.047v-135.904l-4.625-2.155c-15.933-7.423-31.26-13.796-45.978-19.122-14.72-5.326-28.639-9.524-41.758-12.596h-0.031c-13.185-3.024-26.885-5.303-41.104-6.824-14.288-1.529-28.985-2.299-44.092-2.299-17.375 0-31.282 1.1-44.278 3.298-12.973 2.194-24.836 5.459-38.212 9.803-13.413 4.396-25.899 9.756-37.456 16.043-11.681 6.354-22.335 13.619-31.961 21.758l-0.031 0.031c-9.631 8.252-17.81 16.789-24.53 25.595-6.829 8.947-12.17 18.196-16.022 27.729-3.797 9.458-6.631 20.935-8.497 34.423-1.84 13.298-2.761 28.505-2.761 45.612v250.113h-100.821v118.062l5.594 1.786c14.281 4.558 29.707 10.155 44.106 16.76 14.068 6.454 27.079 13.847 36.875 22.118h0.031c9.953 8.386 18.952 17.655 27.011 27.82 8.047 10.15 15.076 21.103 21.099 32.874 6.044 11.769 11.163 25.234 15.356 40.362 4.208 15.187 7.475 32.125 9.796 50.781l0.875 7.032h120.639v-170.219h171.662v-147.376h-171.662v-180.714c0-16.096-0.022 2.053-0.043-12.671-0.048-34.075-0.077-54.391 3.507-63.933 1.908-5.059 5.295-10.29 9.55-15.082z" />
<glyph unicode="&#xe90b;" glyph-name="twitter" d="M835.34 668.679c14.052 3.867 27.663 8.734 40.712 14.483 2.544 1.441 5.789 1.43 8.387-0.302 3.676-2.45 4.669-7.418 2.219-11.094-10.342-15.514-22.103-30.096-35.115-43.574-11.981-12.41-25.013-23.845-38.967-34.168l0.343-14.699c0.032-0.288 0.048-0.581 0.048-0.877 0-109.686-45.115-228.455-131.152-314.48-73.33-73.317-176.295-122.891-306.284-122.891-42.62 0-83.827 6.13-122.843 17.553-40.212 11.773-78.002 29.151-112.53 51.213-2.757 1.512-4.476 4.581-4.108 7.9 0.487 4.391 4.443 7.556 8.833 7.069l-0.002-0.014c5.865-0.651 11.67-1.142 17.434-1.466 5.61-0.315 11.471-0.476 17.623-0.476 33.847 0 66.371 5.644 96.661 16.052 24.657 8.473 47.822 20.080 69.009 34.349-25.982 4.1-49.873 14.45-70.072 29.473-26.144 19.442-46.119 46.707-56.465 78.361-0.585 1.395-0.781 2.972-0.48 4.569 0.819 4.342 5.003 7.197 9.345 6.378l-0.004-0.020c4.534-0.855 8.996-1.483 13.408-1.89 4.29-0.396 8.829-0.591 13.634-0.591 1.586 0 3.159 0.024 4.72 0.070-22.706 10.217-42.601 25.607-58.167 44.669-22.404 27.437-35.864 62.461-35.864 100.591v1.802c-0.008 1.321 0.312 2.662 0.995 3.902 2.133 3.869 6.999 5.275 10.868 3.142l-0.006-0.012c9.953-5.487 20.539-9.892 31.615-12.952 1.987-0.549 3.992-1.055 6.011-1.518-11.781 11.411-21.813 24.659-29.636 39.277-11.96 22.35-18.755 47.858-18.755 74.853 0 14.326 1.902 28.267 5.479 41.544 3.601 13.361 8.927 26.062 15.746 37.817 0.493 1.055 1.226 2.018 2.189 2.803 3.423 2.793 8.463 2.281 11.256-1.142l-6.199-5.057 6.187 5.031c37.192-45.596 83.656-83.22 136.539-110.014 48.308-24.475 101.961-39.909 158.782-44.129-0.394 2.446-0.734 4.897-1.015 7.352-0.697 6.084-1.065 12.224-1.065 18.417 0 43.866 17.802 83.601 46.569 112.367s68.501 46.569 112.367 46.569c22.323 0 43.688-4.672 63.097-13.068 18.742-8.108 35.588-19.675 49.648-33.846 15.139 3.175 29.839 7.517 44.021 12.919 15.681 5.974 30.687 13.234 44.924 21.639 1.97 1.329 4.509 1.77 6.945 0.981 4.203-1.362 6.505-5.874 5.144-10.077l-0.024 0.008c-6.006-18.525-15.228-35.546-27.021-50.38-4.856-6.108-10.154-11.851-15.847-17.182 3.654 0.854 7.276 1.776 10.861 2.763z" />
<glyph unicode="&#xe90c;" glyph-name="user" d="M801.77 206.162c-133.991 49.021-177.566 89.328-177.566 178.655 0 53.379 41.396 35.949 58.826 132.902 7.626 40.306 43.574 1.089 50.111 92.596 0 37.038-19.609 45.753-19.609 45.753s9.804 54.468 14.162 95.864c5.447 52.289-29.413 186.281-215.694 186.281s-221.14-133.991-216.783-186.281c4.357-41.396 14.162-95.864 14.162-95.864s-19.609-8.715-19.609-45.753c6.536-91.506 43.574-52.289 50.111-92.596 18.519-96.953 58.826-79.523 58.826-132.902 0-88.238-42.485-129.634-177.566-178.655-133.991-49.021-221.14-99.132-221.14-133.991 0-33.77 0-114.383 0-114.383h1024c0 0 0 80.613 0 114.383 0 34.86-87.149 84.97-222.23 133.991z" />
<glyph unicode="&#xe90d;" glyph-name="video" d="M34.133 618.667c0 0 102.4 102.4 136.533 0 34.133-136.533 110.319-391.339 170.667-512 34.133-68.267 102.4-102.4 170.667-102.4s133.325 37.683 170.667 68.267c95.164 78.029 284.16 257.877 341.333 580.267 57.242 322.253-396.937 280.781-443.733 0 117.009 70.246 170.667-34.133 136.533-136.533s-102.4-204.8-136.533-204.8c-28.535 0-69.7 74.103-102.4 204.8-30.822 123.392-68.267 375.467-170.667 375.467s-136.533-34.133-136.533-34.133c-95.164-78.029-170.667-205.995-170.667-205.995l34.133-32.939z" />
<glyph unicode="&#xe90e;" glyph-name="arr-left" d="M246.432 503.168l306.752 306.72c28.128 28.096 74.144 28.096 102.24 0l25.632-25.6c28.096-28.064 28.096-74.112 0-102.208l-234.080-234.080 234.080-234.080c28.096-28.096 28.096-74.144 0-102.208l-25.632-25.6c-28.096-28.128-74.112-28.128-102.24 0l-306.752 306.784c-15.104 15.040-21.792 35.264-20.704 55.104-1.088 19.84 5.6 40.064 20.704 55.168z" />
<glyph unicode="&#xe90f;" glyph-name="arr-up" d="M583.072 729.408l306.72-306.72c28.128-28.128 28.128-74.144 0-102.24l-25.6-25.632c-28.064-28.096-74.112-28.096-102.208 0l-234.080 234.080-234.080-234.080c-28.096-28.096-74.144-28.096-102.208 0l-25.6 25.632c-28.128 28.096-28.128 74.112 0 102.24l306.784 306.72c15.072 15.104 35.296 21.824 55.136 20.704 19.744 1.12 40-5.6 55.136-20.704z" />
<glyph unicode="&#xe910;" glyph-name="cart-add" horiz-adv-x="1048" d="M486.953 949.865c-18.523-3.145-36.696-8.155-49.511-13.863-7.339-3.145-21.086-10.019-24.464-12.232-1.864-1.165-4.31-2.563-5.242-3.029-2.097-0.932-16.659-10.951-17.474-11.883-0.349-0.349-3.961-3.495-8.155-6.99-11.533-9.553-26.095-24.814-35.415-37.279-4.66-6.174-8.737-11.999-9.203-12.931s-1.864-3.262-3.029-5.242c-3.961-6.058-9.087-15.843-12.349-23.299-1.165-2.563-2.796-6.058-3.728-7.805-0.815-1.631-1.514-3.844-1.514-4.893 0-0.932-0.699-3.495-1.631-5.592-3.262-7.922-8.155-28.542-9.553-40.541-0.349-3.495-1.048-24.697-1.398-47.181l-0.815-40.774-90.284-0.582c-49.627-0.349-90.401-0.699-90.517-0.932 0-0.116-0.466-3.029-0.815-6.291-0.815-6.291-3.262-21.552-5.592-34.133-0.699-3.844-1.631-9.902-2.097-13.397s-1.398-9.553-2.097-13.397c-0.699-3.844-2.097-12.232-3.145-18.639s-2.563-15.843-3.495-20.969c-0.932-5.126-1.864-11.417-2.213-13.98s-1.048-7.572-1.747-11.067c-0.699-3.495-2.097-11.65-3.029-18.057-4.194-25.513-5.359-32.852-6.64-39.609-0.699-3.844-1.631-9.902-2.097-13.397s-1.398-9.553-2.097-13.397c-0.699-3.844-2.097-12.232-3.145-18.639-3.728-22.6-5.359-32.735-6.64-39.609-0.699-3.844-1.631-9.902-2.097-13.397s-1.398-9.553-2.097-13.397c-0.699-3.844-2.097-12.232-3.145-18.639s-2.563-15.843-3.495-20.969c-0.815-5.126-2.446-14.562-3.378-20.969-1.048-6.407-2.446-14.562-3.145-18.057s-1.631-9.786-2.097-13.98c-0.582-4.194-1.514-10.485-2.213-13.98s-2.097-11.65-3.145-18.057c-0.932-6.407-2.33-14.562-3.029-18.057s-1.398-8.504-1.747-11.067c-0.349-2.563-1.281-8.854-2.213-13.98-0.815-5.126-2.446-14.562-3.495-20.969s-2.679-16.309-3.611-22.134c-0.932-5.708-2.213-13.397-2.912-16.892s-1.398-8.504-1.747-11.067c-0.349-2.563-1.281-8.854-2.213-13.98-0.815-5.126-2.446-14.562-3.495-20.969-0.932-6.407-2.446-14.795-3.145-18.639s-1.631-9.902-2.097-13.397c-0.466-3.495-1.398-9.553-2.097-13.397s-2.213-12.232-3.145-18.639c-4.427-26.911-5.359-32.968-6.524-39.026-0.699-3.495-1.631-9.786-2.213-13.98-0.466-4.194-1.514-10.135-2.097-13.397-1.98-9.902-4.077-25.163-3.495-25.629 0.349-0.349 233.458-0.582 518.174-0.582 393.64 0 517.825 0.349 518.524 1.398 1.048 1.747-0.466 13.048-5.009 37.628-0.699 3.844-1.631 9.902-2.097 13.397s-1.398 9.553-2.097 13.397c-1.98 10.601-4.776 27.493-5.359 32.036-0.233 2.213-1.048 7.456-1.747 11.65-0.815 4.194-2.213 12.582-3.145 18.639s-2.563 14.795-3.495 19.222c-0.932 4.543-1.631 9.553-1.631 11.3s-0.699 6.99-1.631 11.65c-0.932 4.66-2.563 13.747-3.611 20.154-0.932 6.407-2.33 14.562-3.029 18.057s-1.398 8.504-1.747 11.067c-0.349 2.563-1.281 8.854-2.213 13.98-0.815 5.126-2.446 14.562-3.495 20.969-4.077 24.93-5.242 31.803-6.99 43.104-1.048 6.407-2.679 15.843-3.495 20.969-0.932 5.126-2.446 14.562-3.495 20.969-0.932 6.407-2.33 14.562-3.029 18.057s-1.398 8.504-1.747 11.067c-0.349 2.563-1.281 8.854-2.213 13.98s-2.446 14.562-3.495 20.969c-1.048 6.407-2.446 14.795-3.145 18.639s-1.631 9.902-2.097 13.397c-0.466 3.495-1.398 9.553-2.097 13.397-1.165 6.64-1.98 10.951-6.64 39.609-1.048 6.407-2.679 15.843-3.495 20.969-0.932 5.126-1.864 11.417-2.213 13.98s-1.048 7.572-1.747 11.067c-0.699 3.495-2.097 11.65-3.029 18.057-1.048 6.407-2.679 15.61-3.611 20.387-0.932 4.893-1.631 10.485-1.631 12.465s-0.582 5.126-1.165 6.757c-0.699 1.747-1.631 7.106-2.213 11.999s-1.631 11.883-2.33 15.377c-0.699 3.495-2.097 11.65-3.029 18.057-1.048 6.407-2.679 15.843-3.495 20.969s-2.446 14.795-3.495 21.552c-1.048 6.757-2.679 15.96-3.611 20.387-0.932 4.543-1.631 9.436-1.631 11.067 0 1.514-0.932 6.99-1.98 11.883l-1.864 9.087h-90.634c-59.762 0-90.867 0.349-91.333 1.165-0.349 0.699-0.699 14.329-0.582 30.405 0.116 40.89-1.747 61.859-7.805 85.508-0.932 3.844-2.446 8.737-3.378 10.834s-1.631 4.31-1.631 5.009c0 0.699-0.815 3.145-1.864 5.475-0.932 2.446-2.446 5.941-3.262 7.805-6.407 14.678-18.989 35.531-28.425 47.181-14.329 17.474-35.997 37.279-53.821 49.045-20.853 13.863-56.734 27.959-78.052 30.755-2.912 0.349-7.805 1.165-11.067 1.747-9.32 1.631-51.025 1.165-62.325-0.815zM555.104 901.053c16.309-3.495 24.231-6.174 39.026-13.048 17.591-8.155 30.755-18.057 48.695-36.23 25.629-26.095 40.89-57.2 45.55-92.731 0.932-6.873 1.864-65.354 1.281-81.897 0-1.165-34.133-1.398-168.57-1.165l-168.686 0.349v37.861c0 44.035 1.048 53.122 8.97 77.47 2.097 6.407 10.601 24.697 14.096 30.289 16.426 26.328 50.792 57.549 73.043 66.403 0.932 0.466 3.378 1.398 5.242 2.213 15.377 6.757 31.221 10.951 47.181 12.349 13.747 1.281 44.385 0.233 54.171-1.864z" />
<glyph unicode="&#xe911;" glyph-name="cart" horiz-adv-x="1045" d="M490.522 946.416c-14.861-2.090-33.785-6.734-42.144-10.333-2.090-0.929-4.296-1.625-4.992-1.625-1.974 0-25.658-11.726-33.553-16.718-28.444-17.647-53.986-42.957-70.937-69.776-7.314-11.726-7.43-11.958-11.842-20.898-8.011-16.486-13.119-31.579-16.254-47.601-3.947-20.317-4.644-29.373-5.341-66.757l-0.697-38.893-87.655-0.232c-48.181-0.232-88.236-0.58-88.932-0.813-0.813-0.348-1.974-4.412-2.67-9.056s-1.974-11.61-2.67-15.441c-0.697-3.831-1.625-9.868-2.090-13.351s-1.393-9.52-2.090-13.351c-0.697-3.831-2.206-12.19-3.135-18.576-1.045-6.385-2.67-15.79-3.483-20.898-0.929-5.108-1.858-11.378-2.206-13.932s-1.045-7.546-1.741-11.029c-0.697-3.483-2.090-11.61-3.019-17.995-1.045-6.385-2.67-15.79-3.483-20.898-0.929-5.108-1.858-11.378-2.206-13.932s-1.045-7.546-1.741-11.029c-0.697-3.483-2.090-11.61-3.019-17.995-1.045-6.385-2.67-15.79-3.483-20.898-0.929-5.108-1.858-11.378-2.206-13.932s-1.045-7.546-1.741-11.029c-0.697-3.483-2.090-11.61-3.019-17.995-1.045-6.385-2.554-15.79-3.483-20.898-0.813-5.108-2.322-14.28-3.367-20.317-4.644-29.257-5.573-34.946-7.082-43.537-0.929-5.108-1.858-11.378-2.206-13.932s-1.045-7.546-1.741-11.029c-0.697-3.483-2.090-11.61-3.019-17.995-4.18-25.426-5.341-32.74-6.618-39.474-0.697-3.831-1.625-9.868-2.090-13.351s-1.393-9.52-2.090-13.351c-0.697-3.831-2.090-11.958-3.019-17.995-3.019-18.46-8.011-48.994-10.565-64.435-0.929-5.108-2.438-14.396-3.367-20.666-1.045-6.153-2.67-16.37-3.715-22.639-0.929-6.153-2.438-15.441-3.367-20.55-0.813-5.108-2.438-14.512-3.367-20.898-1.045-6.385-2.438-14.512-3.135-17.995s-1.625-9.752-2.090-13.932c-0.58-4.18-1.509-10.449-2.206-13.932s-2.090-11.61-3.135-17.995c-1.045-6.385-2.67-16.022-3.599-21.478-1.045-5.457-1.625-11.726-1.393-13.932l0.348-4.063 511.536-0.348c431.891-0.232 511.768 0 512.929 1.393 0.929 1.045 0.929 3.251 0.232 7.198-2.554 13.235-3.947 21.246-4.76 28.328-0.58 4.18-1.509 10.449-2.206 13.932s-2.090 11.61-3.019 17.995c-1.045 6.385-2.67 15.79-3.483 20.898s-2.438 14.745-3.483 21.478c-1.045 6.734-2.67 16.37-3.483 21.478-3.251 18.808-5.108 30.418-6.966 42.376-1.045 6.734-2.67 16.37-3.483 21.478-2.206 12.771-5.689 34.017-10.449 63.855-1.045 6.385-2.554 15.79-3.483 20.898-0.813 5.108-2.322 14.28-3.367 20.317-4.528 28.444-5.573 34.83-7.082 43.537-0.813 5.108-2.438 14.745-3.483 21.478s-2.67 16.37-3.483 21.478c-0.813 5.108-2.438 14.512-3.483 20.898-0.929 6.385-2.438 14.745-3.135 18.576s-1.625 9.868-2.090 13.351c-0.464 3.483-1.393 9.52-2.090 13.351s-2.090 12.19-3.135 18.576c-1.045 6.385-2.67 16.022-3.483 21.478-0.929 5.457-2.438 15.093-3.483 21.478s-2.554 15.79-3.483 20.898c-1.741 10.217-4.876 29.838-10.449 63.855-0.929 6.385-2.438 14.745-3.135 18.576s-1.625 9.868-2.090 13.351c-0.464 3.483-1.393 9.52-2.090 13.351s-2.090 12.19-3.135 18.576c-1.045 6.385-2.438 14.745-3.135 18.576s-1.625 9.868-2.090 13.351c-1.161 9.404-3.599 23.336-4.528 26.703l-0.697 2.902-89.397 0.58c-49.226 0.348-90.093 1.045-90.79 1.509-1.161 0.697-1.509 9.288-1.625 35.991 0 51.897-1.393 63.971-10.333 90.79-3.483 10.681-5.689 16.602-6.85 18.924-0.58 1.045-2.206 4.296-3.599 7.198-16.138 34.017-50.271 71.053-83.708 90.79-9.404 5.573-30.534 16.022-32.392 16.022-0.58 0-2.786 0.697-4.876 1.625-3.715 1.509-10.797 3.715-21.595 6.502-21.246 5.457-57.469 7.198-80.922 3.831zM554.957 897.422c12.887-2.902 24.961-6.734 31.695-10.101 1.858-0.929 3.831-1.625 4.412-1.625s6.85-3.483 13.816-7.663c24.033-14.396 47.137-37.732 60.72-61.068 6.618-11.61 7.663-13.932 13.932-30.534 6.385-17.299 9.172-44.35 8.707-83.36-0.232-22.988-0.697-27.748-2.090-28.677-1.045-0.697-64.087-1.045-166.603-0.813l-164.862 0.232-0.348 38.893c-0.464 48.878 0.929 58.282 12.539 86.843 3.599 9.056 15.673 29.722 20.201 34.714 0.697 0.697 4.644 5.108 8.824 9.868 14.28 16.37 36.107 33.205 52.245 40.403 13.932 6.269 21.014 8.707 37.732 12.887 12.655 3.135 54.915 3.135 69.079 0zM427.131 500.709c6.734-1.045 14.28-2.67 16.718-3.483 2.322-0.929 5.341-1.625 6.618-1.625s3.947-0.697 6.037-1.625c2.090-0.929 6.153-2.554 9.056-3.599 4.644-1.741 17.183-7.895 23.8-11.494 6.153-3.483 13.468-8.707 21.595-15.325 4.876-4.063 9.172-7.43 9.636-7.43 0.348 0 4.644 3.251 9.636 7.314 12.423 10.217 18.692 14.164 32.856 21.13 11.61 5.573 15.209 7.198 17.995 7.895 1.277 0.348 3.947 1.161 5.805 1.858 28.677 9.752 68.267 10.913 96.479 2.902 3.251-0.929 6.734-1.625 7.779-1.625s3.599-0.697 5.689-1.625c2.090-0.929 6.153-2.554 9.056-3.599 4.644-1.858 17.299-7.895 23.8-11.494 1.277-0.697 4.18-2.67 6.502-4.412 2.322-1.858 4.644-3.251 5.108-3.251 0.348 0 3.367-2.206 6.618-4.876 17.183-14.28 31.463-29.838 41.796-45.627 5.805-8.94 15.79-29.141 17.299-34.714 0.464-1.974 1.393-5.108 2.090-7.082 4.992-14.629 7.663-32.856 7.663-53.406 0-20.666-2.090-34.249-8.707-55.728-6.966-22.523-20.782-45.279-39.822-65.132-26.819-28.096-53.87-43.305-93.112-52.245-13.584-3.019-55.263-3.135-68.499-0.116-11.61 2.786-20.666 5.224-26.703 7.43-4.644 1.741-25.89 12.074-30.186 14.629-2.090 1.277-20.434 14.977-26.703 19.853l-2.902 2.322-3.831-3.483c-15.325-14.512-39.822-28.444-61.185-35.178-21.711-6.734-27.516-7.546-54.567-7.546s-32.856 0.813-54.567 7.546c-11.842 3.715-29.373 11.842-38.197 17.647-29.605 19.737-53.638 46.556-66.757 74.536-1.161 2.554-2.786 5.921-3.599 7.546-1.858 3.715-7.895 24.033-9.985 33.088-2.554 11.494-2.786 54.683-0.464 67.338 5.108 27.051 17.415 54.683 33.205 74.884 10.913 14.048 30.65 32.508 44.002 41.215 19.156 12.539 42.26 21.943 61.533 24.961 3.483 0.58 9.056 1.509 12.19 2.090 9.636 1.858 35.759 1.509 49.226-0.464zM381.968 450.902c-19.621-2.786-34.366-8.359-51.432-19.505-9.288-6.037-29.373-26.355-35.875-36.223-5.341-8.359-13.7-25.078-13.7-27.516 0-0.813-0.697-3.483-1.625-6.153-6.269-17.995-6.269-52.825 0-70.821 0.929-2.67 1.625-5.457 1.625-6.269s2.322-6.269 5.108-12.19c5.805-11.958 15.673-26.006 25.194-35.41 5.573-5.573 19.853-16.951 26.006-20.666 4.876-3.019 19.273-9.636 20.898-9.636 0.929 0 3.367-0.697 5.457-1.625 12.19-5.108 42.841-6.966 59.791-3.483 15.673 3.135 30.070 8.359 40.403 14.745 4.528 2.786 19.853 14.629 24.497 19.040 4.528 4.18 19.273 22.291 27.283 33.437 2.090 2.902 4.063 5.224 4.528 5.224 1.625 0 4.76-3.483 13.351-15.093 13.468-18.228 28.909-33.088 44.118-42.609 22.872-14.396 58.166-20.085 87.307-14.28 26.355 5.224 43.537 14.28 63.39 33.553 7.314 7.082 16.834 18.344 20.201 23.917 4.76 7.895 13.119 26.703 13.119 29.489 0 1.161 0.929 4.18 1.974 6.618 2.902 6.618 2.902 53.058 0 60.836-1.045 2.902-1.974 6.153-1.974 7.198 0 3.947-9.636 23.684-16.602 34.017-6.153 9.172-23.8 26.703-33.321 33.088-24.961 16.951-54.102 24.265-84.405 21.014-7.546-0.813-15.79-2.206-18.344-3.135-2.67-0.929-5.689-1.625-6.85-1.625s-3.483-0.697-5.108-1.509c-1.741-0.929-7.082-3.599-11.842-5.921-11.262-5.573-11.958-5.921-21.13-13.235-10.333-8.243-19.853-18.576-31.927-34.598-5.689-7.663-10.681-13.235-11.842-13.119-1.045 0-3.367 2.322-5.341 5.108-8.591 12.771-21.595 28.212-30.186 36.107-8.243 7.546-20.434 16.718-22.407 16.718-0.348 0-1.509 0.697-2.438 1.509-1.045 0.813-4.18 2.438-7.082 3.599s-6.269 2.554-7.546 3.135c-6.153 2.786-15.093 4.76-27.283 6.269-15.441 1.974-22.407 1.974-35.991 0z" />
<glyph unicode="&#xe912;" glyph-name="email" d="M0 818.667v-35.867l10.4-8c5.6-4.533 14.8-11.733 20.267-16.133s14.8-11.733 20.667-16.267c5.867-4.533 10.933-8.667 11.333-9.2 0.667-1.067 7.333-6.267 28.267-22.4 6.133-4.8 11.333-8.933 11.733-9.467 0.4-0.4 4.8-4 10-8 5.067-4 10.533-8.267 12-9.6 5.733-4.667 51.2-40.933 61.333-48.8 5.867-4.533 15.2-11.867 20.667-16.267s14.533-11.6 20-16c5.467-4.4 14.533-11.6 20-16s14.8-11.733 20.667-16.267c5.867-4.533 11.467-9.067 12.4-10s5.467-4.533 10-8c4.533-3.467 8.933-6.933 9.6-7.867 0.8-0.8 5.2-4.4 10-8s14.667-11.333 22-17.2c7.333-6 19.067-15.2 26-20.667 6.933-5.333 12.933-10.133 13.333-10.667 0.4-0.4 4.4-3.6 8.933-7.067s9.067-7.067 10-8c0.933-0.933 6.533-5.467 12.4-10s15.2-11.867 20.667-16.267c5.467-4.4 14.8-11.733 20.667-16.267s11.333-8.933 12-9.867c0.8-0.8 5.2-4.4 10-8 4.8-3.467 9.333-7.067 10-8 0.8-0.8 5.2-4.4 10-7.867 4.8-3.6 8.933-6.933 9.333-7.333 2.267-2.533 15.333-12 16.533-12 1.6 0 10 5.733 11.333 7.733 0.4 0.533 5.6 4.8 11.467 9.333s15.2 11.867 20.667 16.267c5.467 4.4 14.8 11.733 20.667 16.267 5.867 4.667 11.867 9.333 13.333 10.667 1.467 1.2 12.267 9.733 24 19.067 11.733 9.2 22.533 17.867 24 19.067 1.467 1.333 6.4 5.2 10.933 8.667s9.067 7.067 10 8c0.933 0.933 5.6 4.667 10.4 8.133 4.8 3.6 9.333 7.2 10 8 0.8 0.933 5.2 4.533 10 8 4.8 3.6 9.333 7.2 10 8 0.8 0.933 5.2 4.533 10 8 4.8 3.6 9.333 7.2 10 8 0.8 0.933 6.133 5.333 12 9.867s15.2 11.867 20.667 16.267c19.6 15.6 30.933 24.8 39.067 31.067 4.533 3.6 9.6 7.6 11.2 8.933s8.267 6.667 14.667 11.733c12.4 9.733 52.533 41.6 57.067 45.333 1.467 1.333 6.4 5.2 10.933 8.667s9.067 7.067 10 8c0.933 0.933 5.6 4.667 10.4 8.133 4.8 3.6 9.333 7.2 10 8 0.8 0.933 6.133 5.333 12 9.867s14.933 11.733 20.267 15.867c5.2 4.267 13.333 10.667 18 14.267 16.133 12.667 53.733 42.8 55.467 44.4 1.067 0.933 2.4 1.467 3.067 1.067 0.667-0.533 1.2 13.867 1.2 35.867v36.8h-1024v-36zM0 411.2c0-227.867 0.133-239.467 2.267-237.733 1.333 1.067 3.867 3.2 5.733 4.8s6.133 5.2 9.467 8c16 13.333 19.067 15.867 20.4 17.067 0.8 0.8 4.8 4 8.8 7.333s8 6.533 8.8 7.333c0.8 0.667 4.4 3.733 7.867 6.667 3.6 2.933 8.667 7.2 11.2 9.467 2.667 2.267 15.867 13.333 29.467 24.667s26.133 21.867 28 23.467c3.733 3.067 12.267 10.267 22 18.4 3.6 2.933 7.333 6.267 8.533 7.333 1.2 1.2 5.2 4.4 8.8 7.333 3.733 2.933 8.8 7.2 11.467 9.733 2.667 2.4 6.933 6 9.467 8 4.933 3.733 53.2 44 69.867 58.267 5.2 4.4 12.4 10.4 15.867 13.333 13.6 11.2 14.4 12.133 13.2 14.267s-4.533 4.933-28.8 23.733c-6.133 4.667-11.6 9.2-12.4 10.133-0.667 0.8-5.2 4.4-10 8-4.8 3.467-9.2 7.067-10 8-0.667 0.8-5.2 4.4-10 7.867-4.8 3.6-8.933 6.933-9.333 7.333s-4.8 4-10 8c-5.067 4-9.6 7.6-10 8s-3.333 2.933-6.667 5.467c-3.333 2.533-16.133 12.8-28.667 22.8-12.4 9.867-25.733 20.267-29.467 23.2-9.2 7.067-26.4 20.8-27.2 21.867-0.4 0.4-5.467 4.533-11.333 9.067s-15.2 11.867-20.667 16.267c-5.467 4.4-14.8 11.733-20.667 16.267s-11.2 8.933-12 9.867c-0.667 0.8-5.2 4.4-10 7.867-4.8 3.6-8.933 6.933-9.333 7.333-1.6 1.867-13.067 10.667-13.867 10.667-0.4 0-0.8-107.733-0.8-239.467zM993.333 628.533c-15.067-12-28.267-22.667-29.333-23.6s-5.867-4.533-10.667-8.133c-4.8-3.6-9.2-7.2-10-8-0.667-0.933-5.2-4.533-10-8-4.8-3.6-9.2-7.2-10-8-0.667-0.933-6.133-5.333-12-9.867s-15.2-11.867-20.667-16.267c-19.6-15.6-30.933-24.8-39.067-31.067-4.533-3.6-9.467-7.467-10.933-8.667s-9.6-7.6-18-14.267c-8.4-6.533-15.6-12.267-16-12.667s-4.4-3.6-8.933-7.067c-4.533-3.467-9.067-7.067-10-8s-5.6-4.667-10.4-8.267c-4.8-3.6-10.133-7.867-12-9.6-1.867-1.6-6.667-5.6-10.8-8.667-18-13.733-23.867-18.933-23.867-20.933 0-1.2 2.133-3.6 4.533-5.467 6.267-4.667 17.333-13.733 26.133-21.333 4-3.467 10.4-8.933 14-12 3.733-3.067 8.133-6.933 10-8.4 1.867-1.6 6.267-5.333 10-8.133 8-6.4 12.4-10.133 15.2-12.933 1.2-1.067 16.533-14 34.133-28.533 17.6-14.667 36.267-30.267 41.467-34.667s12.267-10.4 15.867-13.333c3.467-2.933 7.067-6 7.867-6.667 0.8-0.8 4.533-3.733 8.133-6.667 3.733-2.933 7.6-6.133 8.8-7.333 1.2-1.067 4.933-4.4 8.533-7.333 3.467-2.933 8.933-7.467 12-10s8.4-7.067 12-10c3.6-2.933 8.667-7.2 11.2-9.467 20.533-17.733 50.267-41.867 51.733-41.867s1.733 43.467 1.733 238.667c0 190.133-0.4 238.667-1.6 238.667-0.933-0.133-14-10-29.067-22.133zM363.2 342.267c-5.2-4.533-12.4-10.667-15.867-13.6-3.6-2.933-8.933-7.467-12-10-2.933-2.533-8.4-7.067-12-10-3.467-2.933-7.333-6.267-8.533-7.333-1.2-1.2-5.067-4.4-8.8-7.333-3.6-2.933-7.333-5.867-8.133-6.667-0.8-0.667-4.4-3.733-7.867-6.667-3.6-2.933-10.667-8.933-15.867-13.333-5.2-4.533-11.333-9.6-13.6-11.333-5.067-4-58.533-48.667-63.2-52.8-3.067-2.8-5.467-4.8-22-18.533-3.6-2.933-7.333-6.267-8.533-7.333-1.2-1.2-5.067-4.4-8.8-7.333-3.6-2.933-8.8-7.2-11.467-9.733-2.667-2.4-6.933-6-9.467-8-4.933-3.733-53.2-44-69.867-58.267-5.2-4.4-12.4-10.4-15.867-13.333-3.6-2.933-8.933-7.467-12-10s-8.4-7.067-11.867-10c-3.467-2.8-7.733-6.533-9.467-8.133s-5.867-4.8-9.2-7.2c-3.333-2.4-5.733-4.933-5.333-5.467 1.067-1.867 1013.467-1.467 1014.533 0.267 0.533 0.8-0.267 2.267-1.867 3.333-1.467 1.067-10 8.133-18.933 15.6s-18.267 15.2-20.933 17.2c-2.533 2-6.8 5.733-9.467 8.133s-8.133 6.933-12.133 10.133c-4 3.2-10.533 8.667-14.667 12.133-8.267 7.2-16.533 14.133-26 22-14.267 11.867-18.8 15.733-22 18.533-4.667 4.133-58.133 48.8-63.2 52.8-2.267 1.733-8.4 6.8-13.6 11.333-5.2 4.4-12.4 10.4-15.867 13.333-3.6 2.933-7.333 6.267-8.533 7.333-1.2 1.2-5.067 4.4-8.8 7.333-3.6 2.933-7.333 5.867-8.133 6.667-0.8 0.667-4.4 3.733-7.867 6.667-3.6 2.933-10.667 8.933-15.867 13.333-5.2 4.533-11.333 9.6-13.6 11.333-2.267 1.867-20.267 16.8-39.867 33.333s-37.867 31.733-40.533 33.733c-2.667 2-4.933 4.267-5.2 4.933-1.6 4.4-8.667-0.133-41.2-26.133-18.933-15.067-35.6-28.4-37.067-29.6-1.467-1.333-6.4-5.2-10.933-8.667s-9.067-7.067-10-8c-0.933-0.933-5.6-4.667-10.4-8.133-4.8-3.6-9.2-7.2-10-8-3.2-3.733-18-14.133-20-14.133s-10.133 5.867-32.667 24c-19.6 15.6-30.933 24.8-39.067 31.067-4.533 3.6-9.467 7.467-10.933 8.8-1.6 1.2-6 4.933-10 8-4 3.2-9.467 7.467-12 9.6-17.733 14.533-28.933 22.533-31.2 22.4-1.6 0-7.067-3.733-12.267-8.267z" />
<glyph unicode="&#xe913;" glyph-name="minus" d="M834.8 512h-645.6c-33.8 0-61.2-28.6-61.2-64s27.4-64 61.2-64h645.6c33.8 0 61.2 28.6 61.2 64s-27.4 64-61.2 64z" />
</font>
</defs>
</svg>
